<svg width="24" height="24" viewBox="0 0 24 24" fill="none" xmlns="http://www.w3.org/2000/svg">
<path d="M21.58 6.49389C21.35 5.51589 20.67 4.7335 19.81 4.46944C18.26 4 12 4 12 4C12 4 5.75 4 4.19 4.47922C3.33 4.7335 2.65 5.51589 2.42 6.49389C2 8.28362 2 12 2 12C2 12 2 15.7164 2.42 17.5061C2.65 18.4841 3.33 19.2665 4.19 19.5306C5.75 20 12 20 12 20C12 20 18.26 20 19.81 19.5208C20.67 19.2567 21.35 18.4841 21.58 17.4963C22 15.7164 22 12 22 12C22 12 22 8.28362 21.58 6.49389Z" stroke="#999999" stroke-width="2" stroke-miterlimit="10" stroke-linecap="round" stroke-linejoin="round"/>
<path d="M9 15C9 15.3603 9.19379 15.6927 9.5073 15.8702C9.82081 16.0477 10.2056 16.0429 10.5145 15.8575L15.5145 12.8575C15.8157 12.6768 16 12.3513 16 12C16 11.6487 15.8157 11.3232 15.5145 11.1425L10.5145 8.14251C10.2056 7.95715 9.82081 7.95229 9.5073 8.1298C9.19379 8.30731 9 8.63973 9 9V15Z" stroke="#999999" stroke-width="2" stroke-miterlimit="10" stroke-linecap="round" stroke-linejoin="round"/>
</svg>
